Coordinates
version=1
nRows=29
nColumns=24
inDegrees=yes

Units are S.I. units (second, meters, Newtons, ...)
Angles are in degrees.

endheader
time	pelvis_tilt	pelvis_list	pelvis_rotation	pelvis_tx	pelvis_ty	pelvis_tz	hip_flexion_r	hip_adduction_r	hip_rotation_r	knee_angle_r	ankle_angle_r	subtalar_angle_r	mtp_angle_r	hip_flexion_l	hip_adduction_l	hip_rotation_l	knee_angle_l	ankle_angle_l	subtalar_angle_l	mtp_angle_l	lumbar_extension	lumbar_bending	lumbar_rotation
      1.22066667	     -2.04535639	      8.19704238	     -5.05595489	      0.15924994	      1.00390305	      0.31163946	     17.75064400	    -10.63024552	      0.36703456	    -68.51869325	    -10.83366671	     -6.80942549	     12.96817475	      9.20338534	     13.41723367	      5.07341475	    -11.37650275	      3.56233818	    -17.88351870	     -1.43448935	    -11.07009452	     -2.85947842	      0.50809269
      1.22483333	     -2.00844433	      8.00205748	     -5.09734659	      0.16428330	      1.00485722	      0.31159328	     18.23992290	    -10.34733702	      0.36868555	    -68.27558349	     -9.85760065	     -6.98845069	     12.81852413	      8.60136336	     13.23781015	      5.20529523	    -10.92121221	      3.56604999	    -17.92160649	     -1.48579400	    -11.13185928	     -2.55960926	      0.17232885
      1.22900000	     -1.99272063	      7.80848109	     -5.11794633	      0.16927876	      1.00575625	      0.31153263	     18.73964294	    -10.06369069	      0.34297718	    -67.97848435	     -8.91622058	     -7.29625326	     12.48550645	      8.03589212	     13.05851146	      5.33797747	    -10.48938121	      3.52111808	    -17.97703348	     -1.59484581	    -11.18370008	     -2.26349236	     -0.13764751
      1.23316667	     -2.01100895	      7.58760964	     -5.15529790	      0.17425615	      1.00660035	      0.31151385	     19.25975913	     -9.72527848	      0.34444081	    -67.60764742	     -8.01661385	     -7.57669442	     12.40958876	      7.52938184	     12.83874774	      5.39300063	    -10.10608838	      3.55317495	    -17.93534227	     -1.62249757	    -11.21886381	     -1.95416853	     -0.21388193
      1.23733333	     -1.99531520	      7.37271390	     -5.16578342	      0.17928694	      1.00746889	      0.31145320	     19.71086227	     -9.41424638	      0.29812247	    -67.16250358	     -7.14565951	     -7.81909138	     12.22166263	      6.96114314	     12.63388511	      5.51385971	     -9.67827173	      3.57003631	    -17.94556037	     -1.68598442	    -11.25546556	     -1.63455385	     -0.52171196
      1.24150000	     -1.98400899	      7.15659185	     -5.17959892	      0.18424795	      1.00831030	      0.31141313	     20.16046362	     -9.08769611	      0.26493391	    -66.66482060	     -6.29580291	     -8.12067792	     12.07724888	      6.41927450	     12.42391334	      5.61070208	     -9.28353418	      3.56705292	    -17.92453670	     -1.73578278	    -11.33618597	     -1.32264658	     -0.70381218
      1.24566667	     -1.98645522	      6.95926212	     -5.16129455	      0.18926273	      1.00908120	      0.31131191	     20.60232440	     -8.80008049	      0.18416476	    -66.12012545	     -5.40035293	     -8.37157478	      8.71861444	      5.86309386	     12.24417878	      5.84245469	     -8.83856132	      3.51987482	    -18.12278298	     -2.80519277	    -11.35355557	     -1.04131841	     -0.91908873
      1.24983333	     -2.00890786	      6.73943182	     -5.16137784	      0.19425869	      1.00981415	      0.31127859	     21.04648390	     -8.46578531	      0.13247862	    -65.49717682	     -4.59927058	     -8.65733102	      8.70766665	      5.37942573	     12.01965833	      5.84410018	     -8.48760684	      3.53878036	    -17.99874549	     -2.80933715	    -11.37459074	     -0.72851590	     -1.05881581
      1.25400000	     -1.96834650	      6.49002136	     -5.14111559	      0.19926856	      1.01063617	      0.31122910	     21.38066888	     -8.10994567	      0.05044134	    -64.78250198	     -3.88196267	     -8.95255280	      8.65686388	      4.80294358	     11.77276381	      5.94677623	     -8.10192433	      3.61315457	    -17.90456373	     -2.82126828	    -11.45582373	     -0.37471607	     -1.37894687
      1.25816667	     -1.96101498	      6.27045900	     -5.11185632	      0.20427899	      1.01133931	      0.31115614	     21.74699767	     -7.78926896	     -0.03707106	    -64.03772411	     -3.15048830	     -9.25576446	      8.58489348	      4.27371718	     11.55610375	      6.04283780	     -7.72942037	      3.64877829	    -17.85451599	     -2.84093754	    -11.50562974	     -0.04289999	     -1.63183625
      1.26233333	     -1.95584740	      6.04731212	     -5.06639240	      0.20928478	      1.01201457	      0.31107934	     22.09048157	     -7.46408376	     -0.13266284	    -63.22853432	     -2.44033621	     -9.58083635	      8.44511050	      3.75361822	     11.33459985	      6.15367966	     -7.37145185	      3.66504670	    -17.82220004	     -2.87908984	    -11.55439300	      0.27630097	     -1.92198745
      1.26650000	     -1.95977115	      5.81556887	     -5.02271809	      0.21430922	      1.01264484	      0.31100565	     22.42245017	     -7.12683284	     -0.22295421	    -62.35692208	     -1.78342737	     -9.85602909	      8.32326867	      3.24422293	     11.10126211	      6.25569682	     -7.01763912	      3.71825821	    -17.78246372	     -2.91214846	    -11.58680242	      0.60843104	     -2.12754369
      1.27066667	     -1.95228062	      5.58556387	     -4.96888883	      0.21933553	      1.01324610	      0.31093487	     22.72108869	     -6.79320995	     -0.32062717	    -61.43075126	     -1.14303435	    -10.15085501	      8.18526803	      2.72971239	     10.86951430	      6.35345350	     -6.67700434	      3.77076822	    -17.73080531	     -2.94892209	    -11.63452891	      0.93856755	     -2.35635929
      1.27483333	     -1.94352057	      5.36359866	     -4.90339024	      0.22436132	      1.01380416	      0.31086180	     22.99981910	     -6.47027762	     -0.41801401	    -60.45261755	     -0.53518192	    -10.43691275	      8.02630362	      2.22305744	     10.64454284	      6.45139479	     -6.35284572	      3.82830789	    -17.67572939	     -2.99078087	    -11.68617741	      1.25428568	     -2.59910304
      1.27900000	     -1.96467857	      5.14611292	     -4.83059597	      0.22940134	      1.01427099	      0.31077839	     23.29404082	     -6.15193154	     -0.51596247	    -59.42678374	      0.03233672	    -10.70551986	      7.87017288	      1.75616814	     10.42159200	      6.54598143	     -6.04507562	      3.90313653	    -17.62058495	     -3.03133918	    -11.69482174	      1.57168865	     -2.81950416
      1.28316667	     -1.98941105	      4.92729383	     -4.74406296	      0.23442045	      1.01470196	      0.31070490	     23.56876147	     -5.83116478	     -0.61375946	    -58.34390268	      0.60358135	    -10.94753715	      7.76979661	      1.31907522	     10.19487902	      6.61949966	     -5.78901438	      3.96323361	    -17.56523158	     -3.05774472	    -11.71267187	      1.86834853	     -2.97561293
      1.28733333	     -1.99578209	      4.71926133	     -4.65745757	      0.23946485	      1.01509470	      0.31062722	     23.80894964	     -5.52614395	     -0.70700292	    -57.21589301	      1.10028357	    -11.20589519	      7.65310890	      0.85163629	      9.98044766	      6.71168277	     -5.51038923	      4.04810089	    -17.49614567	     -3.08655360	    -11.74145406	      2.16639153	     -3.19560219
      1.29150000	     -1.97635308	      4.51804300	     -4.57274238	      0.24453273	      1.01546915	      0.31054826	     24.00556109	     -5.23504706	     -0.79794626	    -56.04125615	      1.50536452	    -11.49166785	      7.45719233	      0.34482102	      9.77320003	      6.82166920	     -5.20652446	      4.16471332	    -17.40811303	     -3.13380543	    -11.78917446	      2.47366851	     -3.51203117
      1.29566667	     -1.98878529	      4.32672528	     -4.47087357	      0.24958962	      1.01575646	      0.31047970	     24.21699766	     -4.95141714	     -0.88665474	    -54.82172053	      1.91745042	    -11.73943470	      7.22942125	     -0.10114849	      9.57260469	      6.92225983	     -4.95738692	      4.26449800	    -17.32782547	     -3.18935814	    -11.80426150	      2.75777828	     -3.77083564
      1.29983333	     -2.06563677	      4.16688757	     -4.30591994	      0.25462775	      1.01589919	      0.31031415	     24.48431953	     -4.73050808	     -1.02964067	    -53.58346747	      2.38045957	    -11.85211039	      4.62064987	     -0.44752310	      9.40270577	      7.07364695	     -4.77210559	      4.38036107	    -17.19665252	     -3.84607173	    -11.72476563	      3.03623467	     -4.22462477
      1.30400000	     -2.04987728	      3.98232339	     -4.24794024	      0.25968463	      1.01611057	      0.31031004	     24.64002532	     -4.43725073	     -1.05501842	    -52.27798168	      2.73013207	    -12.07680531	      4.56777758	     -0.90769491	      9.21202822	      7.11109890	     -4.54667058	      4.47027200	    -17.18573543	     -3.85718650	    -11.79375812	      3.27505842	     -4.22238060
      1.30816667	     -2.06946244	      3.81986669	     -4.14083907	      0.26474984	      1.01621254	      0.31024839	     24.81730712	     -4.19393819	     -1.13161602	    -50.94415760	      3.03138443	    -12.27533515	      4.50770318	     -1.32571730	      9.03993431	      7.21584872	     -4.33191356	      4.56716207	    -17.13683934	     -3.86840166	    -11.81648257	      3.50274203	     -4.36314685
      1.31233333	     -2.07461251	      3.68036999	     -4.03684722	      0.26982725	      1.01627490	      0.31019077	     24.96628368	     -3.97713314	     -1.19660248	    -49.57441088	      3.26106547	    -12.48368505	      4.42026936	     -1.75865032	      8.89411306	      7.32744359	     -4.11527033	      4.67215319	    -17.09052911	     -3.88477153	    -11.82160719	      3.72351899	     -4.59779765
      1.31650000	     -2.09649420	      3.55070378	     -3.92652106	      0.27488880	      1.01626296	      0.31014911	     25.11915198	     -3.76878641	     -1.25205276	    -48.17306038	      3.47596005	    -12.68163841	      4.29047822	     -2.16422980	      8.75526846	      7.45142851	     -3.91389843	      4.76593103	    -17.03985843	     -3.90929570	    -11.82809038	      3.92515827	     -4.86477256
      1.32066667	     -2.12718690	      3.43389712	     -3.81515761	      0.27996049	      1.01618134	      0.31010999	     25.26810480	     -3.57946950	     -1.30929972	    -46.74221290	      3.68227357	    -12.83225382	      4.13950595	     -2.54946558	      8.63000218	      7.56955519	     -3.73513430	      4.85430796	    -17.01009175	     -3.93816152	    -11.82112443	      4.11218324	     -5.08931252
      1.32483333	     -2.17035715	      3.31972640	     -3.69816810	      0.28503421	      1.01604116	      0.31007153	     25.41223138	     -3.40046031	     -1.38052086	    -45.27654838	      3.87780163	    -12.90757627	      4.04324711	     -2.90833640	      8.50647397	      7.67415730	     -3.58237287	      4.94709708	    -16.99437011	     -3.95501867	    -11.80917964	      4.28157928	     -5.23060145
      1.32900000	     -2.21796863	      3.23310447	     -3.58800310	      0.29010961	      1.01583237	      0.31003619	     25.54997707	     -3.24675504	     -1.42122699	    -43.78478336	      4.04266003	    -12.98945893	      3.95550114	     -3.25378158	      8.41425209	      7.78862241	     -3.44535872	      5.03362575	    -16.97461551	     -3.96969300	    -11.76945786	      4.43924886	     -5.38889253
      1.33316667	     -2.27237131	      3.15447021	     -3.47969606	      0.29518081	      1.01555213	      0.31004264	     25.68249548	     -3.10148930	     -1.46701641	    -42.26791316	      4.15625823	    -13.07776180	      3.84723067	     -3.59212426	      8.32625790	      7.89934863	     -3.30323720	      5.13138137	    -16.96994867	     -3.98758680	    -11.74329039	      4.56151250	     -5.59565588
      1.33733333	     -2.30348707	      3.09892816	     -3.38271099	      0.30026652	      1.01526731	      0.31006580	     25.77464661	     -2.97736191	     -1.48480440	    -40.72178080	      4.24328271	    -13.17491168	      3.67791330	     -3.96177455	      8.26392034	      8.02639344	     -3.14647013	      5.22283849	    -16.95896803	     -4.01682316	    -11.72069475	      4.67891800	     -5.84294241
